<svg xmlns="http://www.w3.org/2000/svg" viewBox="0 0 220 50">
  <!-- Queen Icon -->
  <g transform="translate(0, 0) scale(0.52)">
    <!-- Crown balls -->
    <circle cx="30" cy="8" r="4" fill="#e84393"/>
    <circle cx="40" cy="12" r="3.5" fill="#e84393"/>
    <circle cx="50" cy="6" r="4" fill="#e84393"/>
    <circle cx="60" cy="12" r="3.5" fill="#e84393"/>
    <circle cx="70" cy="8" r="4" fill="#e84393"/>
    <!-- Crown stems -->
    <line x1="30" y1="12" x2="30" y2="22" stroke="#e84393" stroke-width="3" stroke-linecap="round"/>
    <line x1="40" y1="15" x2="40" y2="22" stroke="#e84393" stroke-width="3" stroke-linecap="round"/>
    <line x1="50" y1="10" x2="50" y2="22" stroke="#e84393" stroke-width="3" stroke-linecap="round"/>
    <line x1="60" y1="15" x2="60" y2="22" stroke="#e84393" stroke-width="3" stroke-linecap="round"/>
    <line x1="70" y1="12" x2="70" y2="22" stroke="#e84393" stroke-width="3" stroke-linecap="round"/>
    <!-- Head oval -->
    <ellipse cx="50" cy="48" rx="28" ry="24" fill="none" stroke="#e84393" stroke-width="4"/>
    <!-- Outer hair left -->
    <path d="M22 48 C10 65 18 88 35 95" fill="none" stroke="#e84393" stroke-width="4" stroke-linecap="round"/>
    <!-- Outer hair right -->
    <path d="M78 48 C90 65 82 88 65 95" fill="none" stroke="#e84393" stroke-width="4" stroke-linecap="round"/>
    <!-- Inner hair left -->
    <path d="M35 30 C42 50 36 70 42 90" fill="none" stroke="#e84393" stroke-width="3" stroke-linecap="round"/>
    <!-- Inner hair right -->
    <path d="M65 30 C58 50 64 70 58 90" fill="none" stroke="#e84393" stroke-width="3" stroke-linecap="round"/>
    <!-- Face V -->
    <path d="M40 55 L50 70 L60 55" fill="none" stroke="#e84393" stroke-width="3" stroke-linecap="round" stroke-linejoin="round"/>
    <!-- Lips -->
    <path d="M44 78 Q50 84 56 78" fill="#e84393"/>
    <!-- Curl bottom left -->
    <path d="M38 92 C22 100 14 90 22 82" fill="none" stroke="#e84393" stroke-width="3" stroke-linecap="round"/>
  </g>
  <!-- Text -->
  <text x="58" y="35" font-family="Arial, sans-serif" font-size="26" font-weight="bold" fill="#e84393">BeautyPass</text>
</svg>
